<?xml version="1.0" encoding="UTF-8" standalone="no"?>
<svg width="176px" height="86px" viewBox="0 0 176 86" version="1.1" xmlns="http://www.w3.org/2000/svg" xmlns:xlink="http://www.w3.org/1999/xlink" xmlns:sketch="http://www.bohemiancoding.com/sketch/ns">
    <!-- Generator: Sketch 3.1.1 (8761) - http://www.bohemiancoding.com/sketch -->
    <title>mom-logo-color</title>
    <desc>Created with Sketch.</desc>
    <defs></defs>
    <g id="Page-1" stroke="none" stroke-width="1" fill="none" fill-rule="evenodd" sketch:type="MSPage">
        <g id="mom-logo-color" sketch:type="MSLayerGroup">
            <g id="Group" sketch:type="MSShapeGroup">
                <path d="M69.98,33.815 L71.781,33.815 L71.781,26.085 L71.808,26.059 L74.336,33.815 L76.138,33.815 L78.667,26.059 L78.692,26.059 L78.692,33.815 L80.494,33.815 L80.494,24.415 L77.483,24.415 L75.251,31.54 L75.223,31.54 L72.993,24.415 L69.98,24.415 L69.98,33.815 L69.98,33.815 Z" id="Shape" fill="#231F20"></path>
                <path d="M87.072,33.815 L87.072,24.415 L85.19,24.415 L85.19,33.815 L87.072,33.815 L87.072,33.815 Z" id="Shape" fill="#231F20"></path>
                <path d="M91.734,33.815 L93.536,33.815 L93.536,26.786 L93.563,26.786 L97.154,33.815 L99.454,33.815 L99.454,24.415 L97.65,24.415 L97.65,31.445 L97.624,31.445 L94.048,24.415 L91.734,24.415 L91.734,33.815 L91.734,33.815 Z" id="Shape" fill="#231F20"></path>
                <path d="M106.048,33.815 L106.048,24.415 L104.166,24.415 L104.166,33.815 L106.048,33.815 L106.048,33.815 Z" id="Shape" fill="#231F20"></path>
                <path d="M115.479,24.591 C114.792,24.361 114.04,24.254 113.234,24.254 C111.579,24.254 109.952,25.021 109.952,27.123 C109.952,30.234 114.066,29.492 114.066,31.284 C114.066,32.133 113.112,32.496 112.399,32.496 C111.659,32.496 110.92,32.267 110.275,31.917 L110.099,33.613 C111.027,33.843 111.485,33.977 112.506,33.977 C114.402,33.977 116.029,33.198 116.029,31.136 C116.029,27.984 111.915,28.672 111.915,27.041 C111.915,26.018 112.747,25.735 113.394,25.735 C114.051,25.735 114.711,25.883 115.302,26.139 L115.479,24.591 L115.479,24.591 Z" id="Shape" fill="#231F20"></path>
                <path d="M120.996,33.815 L122.878,33.815 L122.878,25.897 L125.568,25.897 L125.568,24.415 L118.306,24.415 L118.306,25.897 L120.996,25.897 L120.996,33.815 L120.996,33.815 Z" id="Shape" fill="#231F20"></path>
                <path d="M130.306,25.897 L130.925,25.897 C131.866,25.897 132.915,25.991 132.915,27.123 C132.915,28.294 131.853,28.429 130.925,28.429 L130.306,28.429 L130.306,25.897 L130.306,25.897 Z M128.424,33.815 L130.306,33.815 L130.306,29.91 L130.911,29.91 C131.704,29.91 131.946,30.18 132.217,30.881 L133.345,33.816 L135.443,33.816 L133.938,30.139 C133.75,29.721 133.454,29.209 132.942,29.17 L132.942,29.142 C134.14,28.981 134.879,28.066 134.879,26.96 C134.879,24.347 132.472,24.415 130.455,24.415 L128.425,24.415 L128.425,33.815 L128.424,33.815 L128.424,33.815 Z" id="Shape" fill="#231F20"></path>
                <path d="M140.615,33.815 L142.497,33.815 L142.497,30.099 L145.858,24.415 L143.869,24.415 L141.608,28.362 L139.391,24.415 L137.187,24.415 L140.615,30.099 L140.615,33.815 L140.615,33.815 Z" id="Shape" fill="#231F20"></path>
                <path d="M157.539,29.089 C157.539,31.971 159.125,33.977 162.138,33.977 C165.109,33.977 166.736,31.931 166.736,29.089 C166.736,26.246 165.083,24.254 162.138,24.254 C159.153,24.254 157.539,26.207 157.539,29.089 L157.539,29.089 L157.539,29.089 Z M159.502,29.089 C159.502,27.432 160.269,25.735 162.138,25.735 C164.007,25.735 164.774,27.433 164.774,29.089 C164.774,30.785 164.061,32.496 162.138,32.496 C160.214,32.496 159.502,30.785 159.502,29.089 L159.502,29.089 L159.502,29.089 Z" id="Shape" fill="#231F20"></path>
                <path d="M170.168,33.815 L172.05,33.815 L172.05,29.694 L175.223,29.694 L175.223,28.213 L172.05,28.213 L172.05,25.897 L175.385,25.897 L175.385,24.415 L170.168,24.415 L170.168,33.815 L170.168,33.815 Z" id="Shape" fill="#231F20"></path>
                <path d="M69.98,52.5 L72.383,52.5 L72.383,42.193 L72.418,42.157 L75.789,52.5 L78.191,52.5 L81.562,42.157 L81.598,42.157 L81.598,52.5 L84,52.5 L84,39.965 L79.984,39.965 L77.008,49.464 L76.972,49.464 L73.996,39.965 L69.98,39.965 L69.98,52.5 L69.98,52.5 Z" id="Shape" fill="#231F20"></path>
                <path d="M93.995,47.652 L90.338,47.652 L92.15,42.479 L92.186,42.479 L93.995,47.652 L93.995,47.652 Z M85.927,52.5 L88.528,52.5 L89.621,49.626 L94.695,49.626 L95.771,52.5 L98.549,52.5 L93.636,39.965 L90.805,39.965 L85.927,52.5 L85.927,52.5 Z" id="Shape" fill="#231F20"></path>
                <path d="M100.317,52.5 L102.722,52.5 L102.722,43.126 L102.757,43.126 L107.543,52.5 L110.609,52.5 L110.609,39.965 L108.206,39.965 L108.206,49.34 L108.172,49.34 L103.402,39.965 L100.317,39.965 L100.317,52.5 L100.317,52.5 Z" id="Shape" fill="#231F20"></path>
                <path d="M116.325,41.941 L117.204,41.941 C118.495,41.941 119.588,42.442 119.588,43.899 C119.588,45.352 118.459,45.766 117.204,45.766 L116.325,45.766 L116.325,41.941 L116.325,41.941 Z M113.814,52.5 L116.325,52.5 L116.325,47.74 L117.383,47.74 C120.071,47.74 122.205,46.68 122.205,43.754 C122.205,40.755 119.714,39.965 116.988,39.965 L113.814,39.965 L113.814,52.5 L113.814,52.5 Z" id="Shape" fill="#231F20"></path>
                <path d="M123.645,46.197 C123.645,50.04 125.761,52.716 129.777,52.716 C133.739,52.716 135.909,49.987 135.909,46.197 C135.909,42.408 133.704,39.749 129.777,39.749 C125.797,39.75 123.645,42.354 123.645,46.197 L123.645,46.197 L123.645,46.197 Z M126.262,46.197 C126.262,43.987 127.284,41.725 129.777,41.725 C132.27,41.725 133.291,43.987 133.291,46.197 C133.291,48.459 132.343,50.739 129.777,50.739 C127.213,50.739 126.262,48.459 126.262,46.197 L126.262,46.197 L126.262,46.197 Z" id="Shape" fill="#231F20"></path>
                <path d="M140.174,52.5 L143.42,52.5 L145.643,42.479 L145.679,42.479 L147.938,52.5 L151.164,52.5 L154.428,39.965 L151.99,39.965 L149.641,49.986 L149.604,49.986 L147.399,39.965 L143.992,39.965 L141.86,49.986 L141.824,49.986 L139.493,39.965 L136.857,39.965 L140.174,52.5 L140.174,52.5 Z" id="Shape" fill="#231F20"></path>
                <path d="M156.386,52.5 L163.809,52.5 L163.809,50.524 L158.896,50.524 L158.896,47.005 L163.361,47.005 L163.361,45.029 L158.896,45.029 L158.896,41.941 L163.772,41.941 L163.772,39.965 L156.386,39.965 L156.386,52.5 L156.386,52.5 Z" id="Shape" fill="#231F20"></path>
                <path d="M168.905,41.941 L169.73,41.941 C170.985,41.941 172.383,42.066 172.383,43.575 C172.383,45.137 170.966,45.317 169.73,45.317 L168.905,45.317 L168.905,41.941 L168.905,41.941 Z M166.396,52.5 L168.906,52.5 L168.906,47.293 L169.713,47.293 C170.771,47.293 171.093,47.652 171.452,48.584 L172.959,52.5 L175.756,52.5 L173.747,47.598 C173.497,47.041 173.101,46.359 172.421,46.304 L172.421,46.268 C174.017,46.053 175.002,44.832 175.002,43.36 C175.002,39.877 171.792,39.966 169.105,39.966 L166.397,39.966 L166.397,52.5 L166.396,52.5 L166.396,52.5 Z" id="Shape" fill="#231F20"></path>
                <path d="M24.235,9.754 C10.983,26.936 8.617,51.459 21.172,66.104 C13.074,46.727 20.526,26.136 30.045,13.256 C31.429,11.506 31.261,9.449 29.622,8.312 C26.889,6.415 24.829,8.984 24.235,9.754 L24.235,9.754 L24.235,9.754 Z" id="Shape" fill="#007CB7"></path>
                <path d="M38.093,26.08 C26.932,43.141 25.693,65.379 38.147,79.237 C39.704,80.967 41.504,82.384 43.687,83.794 C44.046,84.031 45.591,84.783 47.053,85.25 C50.192,86.251 52.875,85.568 54.225,84.482 C51.829,84.84 48.827,85 45.265,82.152 C31.848,71.423 32.775,46.312 44.184,29.3 C44.31,29.105 45.73,26.325 43.177,24.643 C41.039,23.232 39.093,24.551 38.093,26.08 L38.093,26.08 L38.093,26.08 Z" id="Shape" fill="#007CB7"></path>
                <path d="M36.028,10.643 C21.99,26.896 12.71,55.461 31.634,76.385 C22.626,59.918 22.9,38.541 42.118,15.054 C43.268,13.407 43.357,11.313 41.449,9.814 C39.539,8.312 37.354,9.225 36.028,10.643 L36.028,10.643 L36.028,10.643 Z" id="Shape" fill="#007CB7"></path>
                <path d="M14.005,23.433 C14.005,23.433 12.71,27.073 12.55,27.801 C0.611,22.368 0.797,29.673 4.194,37.448 C-0.124,33.699 -5.755,17.27 14.005,23.433 L14.005,23.433 L14.005,23.433 Z" id="Shape" fill="#F7921E"></path>
                <path d="M42.128,4.733 C42.128,2.119 44.247,0 46.86,0 C49.474,0 51.593,2.119 51.593,4.733 C51.593,7.346 49.474,9.464 46.86,9.464 C44.247,9.465 42.128,7.346 42.128,4.733 L42.128,4.733 L42.128,4.733 Z" id="Shape" fill="#007CB7"></path>
                <path d="M44.278,34.76 C77.174,56.19 63.057,86.475 49.964,82.11 C47.235,81.2 45.551,78.971 45.506,78.335 C46.931,79.732 48.555,80.654 49.881,81.019 C64.188,84.929 67.108,53.665 42.05,39.65 C42.822,37.466 43.823,35.624 44.278,34.76 L44.278,34.76 L44.278,34.76 Z" id="Shape" fill="#F7921E"></path>
            </g>
        </g>
    </g>
</svg>