<svg xmlns="http://www.w3.org/2000/svg" height="87.725" width="654.25" viewBox="0 0 654.25 87.724998"><defs><clipPath id="a"><path d="M0 701.78V0h5234v701.78H0z"/></clipPath></defs><g><g><g><g clip-path="url(#a)" transform="matrix(.125 0 0 -.125 0 87.725)"><path d="M139.57 565.51c38.297-.98 80.555 2.03 116.16-1.633 23.86-25.883-10.234-58.774-49.07-52.356 15.805-27.006 4.348-68.55-11.46-85.053-44.762-46.645-139.77 1.152-171.77-45.805-17.435 13.445-22.024 57.285-8.173 78.52 8.12-25.336 82.328-32.633 78.527 1.636-2.918 25.938-64.84 16.66-80.16 4.903-2.117 16.243-16.53 30.446-13.094 45.8 3.32 14.646 19.668 9.53 27.816 21.255-3.56 9.196-17.324-2.988-19.645 0-.296 42.305 56.036 27.98 93.25 32.735 7.15-13.215 32.134-19.278 37.626 0" fill-rule="evenodd" fill="#ec1e27"/><path d="M281.9 164.75c-8.637 112.9 100.96 129.67 109.56 227.37 6.422 72.344-51.277 132.45-112.84 148.85.98 11.36-3.507 17.223-6.554 24.547 120.98 4.617 212.59-88.414 204.48-209.38-3.21-47.977-28.113-107.94-65.433-132.5-39.383-25.91-87.352-36.164-129.2-58.887" fill-rule="evenodd" fill="#ec1e27"/><path d="M272.06 156.57c-23.403-12.86-49.867-31.863-68.68-50.703-4.78-4.754-16.926-25.957-21.27-26.16-4.863-.254-23.55 28.3-26.183 34.336-31.836 72.668 20.13 132.76 58.887 178.3 32.726 38.445 67.867 76.21 73.63 127.58 4.565 40.957-10.076 75.457-29.462 91.597 5.347 5.067 11.625 17.782 16.343 17.997 52.414-16.39 93.047-51.688 103.04-106.32 21.86-119.22-133.17-142.61-106.31-266.63" fill-rule="evenodd" fill="#ec1e27"/><path d="M245.88 504.98h3.29c19.222-19.894 29.92-40.172 27.804-75.238-6.21-102.48-131.4-148.98-140.66-255.18-4.29-49.17 14.83-77.666 37.62-104.69-9.84-14.987-18.5-43.905-9.81-67.058-68.335 45.223-136.78 101.36-143.94 194.67-6.22 80.547 43.31 120.66 86.695 152.11 53.714 39.004 131.49 60.898 117.77 148.86 8.225 1.032 15.284 3.254 21.24 6.54" fill-rule="evenodd" fill="#ec1e27"/><path d="M90.512 576.96c-2.06 6.82 6.477 12.18 11.437 16.348 5.238 4.418 12.167 10.636 19.632 13.097 13.648 4.52 31.13 1.547 45.8 6.543 13.067 4.442 20.052 18.676 34.337 27.813 30.663 19.532 82.83 14.75 119.42 8.177 41.23-7.387 68.424-21.743 94.882-42.532-54.266 30.243-155.24 16.766-189.75-27.8-43.512-2.286-90.016-1.606-135.76-1.645" fill-rule="evenodd" fill="#ec1e27"/><path d="M249.17 576.96c-1.875 5.637 19.5 17.992 31.094 22.895 125.8 53.36 252.18-75.71 261.7-184.83 7.168-81.957-42.73-123.92-86.7-163.58 18.98 39.168 39.485 82.95 32.727 143.94-12.3 111.1-111.28 194.3-238.82 181.57" fill-rule="evenodd" fill="#ec1e27"/><path d="M895.35 601.88c-2.36 22.68-10.532 39.117-24.55 49.3-13.986 10.157-31.892 15.25-53.697 15.25-8.835 0-17.527-.894-26.074-2.66-8.56-1.77-16.16-4.714-22.766-8.843-6.65-4.125-11.95-9.652-15.918-16.578-3.993-6.92-6-15.536-6-25.865 0-9.722 2.882-17.61 8.636-23.652 5.758-6.047 13.414-10.988 23.008-14.8 9.55-3.833 20.4-6.997 32.488-9.512 12.055-2.495 24.442-5.242 37.122-8.187 12.652-2.945 25.04-6.398 37.128-10.37 12.09-3.985 22.844-9.372 32.278-16.153 9.437-6.778 17.03-15.403 22.754-25.86 5.758-10.453 8.636-23.355 8.636-38.675 0-16.797-3.773-31.184-11.273-43.106-7.523-11.946-17.164-21.657-28.957-29.18-11.79-7.512-24.98-13.04-39.574-16.583-14.578-3.53-29.106-5.293-43.535-5.293-17.68 0-34.414 2.196-50.188 6.633-15.763 4.414-29.614 11.192-41.56 20.332-11.902 9.128-21.355 20.698-28.3 34.698-6.9 14-10.383 30.582-10.383 49.73h39.82c0-13.25 2.56-24.67 7.742-34.265 5.128-9.57 11.902-17.45 20.32-23.644 8.39-6.193 18.117-10.763 29.168-13.697 11.054-2.95 22.63-4.43 34.71-4.43 9.426 0 18.907.884 28.493 2.665 9.587 1.765 18.204 4.773 25.888 9.04 7.66 4.276 13.843 10.108 18.542 17.48 4.73 7.36 7.094 16.785 7.094 28.288 0 10.895-2.883 19.747-8.636 26.524-5.74 6.777-13.3 12.305-22.766 16.582-9.442 4.27-20.176 7.805-32.266 10.605-12.09 2.797-24.472 5.528-37.125 8.188-12.682 2.644-25.07 5.816-37.16 9.492-12.09 3.68-22.92 8.63-32.483 14.82-9.563 6.176-17.24 13.996-22.977 23.438-5.758 9.426-8.637 21.35-8.637 35.8 0 15.91 3.258 29.688 9.715 41.337 6.5 11.64 15.14 21.226 25.89 28.734 10.73 7.512 22.978 13.105 36.7 16.79 13.688 3.694 27.78 5.526 42.21 5.526 16.212 0 31.228-1.914 45.08-5.734 13.855-3.832 25.945-9.87 36.27-18.145 10.323-8.242 18.573-18.632 24.768-31.152 6.16-12.53 9.586-27.483 10.15-44.87H895.35" fill="#5b5c5e"/><path d="M995.25 607.17h37.556V378.61H995.25v228.56zm37.556 41.125H995.25v45.965h37.556v-45.965" fill="#5b5c5e"/><path d="M1091.2 607.17h35.4v-36.246h.89c7.93 14.14 18.16 24.61 30.7 31.386 12.51 6.778 27.02 10.168 43.55 10.168 15.03 0 27.55-2.07 37.57-6.19 10.03-4.126 18.13-9.884 24.31-17.228 6.19-7.382 10.54-16.152 13.06-26.308 2.47-10.176 3.76-21.445 3.76-33.82v-150.32h-37.56v154.74c0 14.145-4.16 25.34-12.43 33.594-8.22 8.242-19.6 12.383-34.02 12.383-11.5 0-21.43-1.778-29.83-5.306-8.41-3.55-15.39-8.558-21.02-15.035-5.59-6.493-9.77-14.07-12.58-22.763-2.82-8.707-4.21-18.214-4.21-28.52v-129.1h-37.59v228.56" fill="#5b5c5e"/><path d="M1460.6 416.86c8.69 5.145 15.7 11.934 21.02 20.33 5.29 8.4 9.21 17.91 11.71 28.514 2.5 10.606 3.74 21.21 3.74 31.836 0 10.02-1.19 19.9-3.55 29.617-2.37 9.74-6.09 18.504-11.25 26.31s-11.87 14.077-20.13 18.78c-8.25 4.727-18.25 7.086-30.06 7.086-12.09 0-22.38-2.297-30.94-6.855-8.56-4.58-15.54-10.692-21-18.352-5.46-7.672-9.42-16.496-11.92-26.52-2.53-10.04-3.78-20.492-3.78-31.386 0-10.336 1.04-20.645 3.11-30.95 2.03-10.32 5.59-19.68 10.62-28.08 5.01-8.396 11.61-15.185 19.87-20.33 8.26-5.16 18.59-7.726 30.97-7.726 12.36 0 22.89 2.566 31.59 7.726zm73.63-18.785c0-37.426-8.63-65.515-25.88-84.22-17.25-18.71-43.98-28.073-80.24-28.073-10.59 0-21.45 1.184-32.5 3.535-11.03 2.364-21.06 6.2-30.05 11.485-9.02 5.332-16.43 12.234-22.33 20.79-5.92 8.538-9.13 19.014-9.72 31.382h37.58c.28-6.778 2.43-12.524 6.39-17.243 4-4.694 8.86-8.54 14.59-11.49 5.76-2.962 12.01-5.067 18.79-6.42 6.79-1.307 13.26-1.97 19.44-1.97 12.39 0 22.86 2.147 31.41 6.397 8.53 4.266 15.62 10.176 21.24 17.684 5.57 7.516 9.61 16.59 12.15 27.196 2.49 10.617 3.77 22.38 3.77 35.36v15.035h-.9c-3.26-7.074-7.38-13.183-12.38-18.36-5.01-5.147-10.68-9.425-17.01-12.804-6.38-3.394-13.11-5.96-20.34-7.742-7.22-1.77-14.37-2.648-21.46-2.648-17.08 0-31.97 3.097-44.65 9.293-12.69 6.175-23.28 14.58-31.84 25.186-8.52 10.61-14.96 22.914-19.2 36.914-4.29 13.99-6.43 28.817-6.43 44.434 0 13.555 1.77 27.406 5.29 41.562 3.56 14.145 9.46 27.106 17.71 38.89 8.22 11.782 19.15 21.443 32.7 28.97 13.56 7.523 30.2 11.265 49.94 11.265 14.47 0 27.66-3.16 39.58-9.502 11.93-6.34 21.27-15.848 28.09-28.52h.9v32.715h35.36v-209.1" fill="#5b5c5e"/><path d="M1732.2 496.22c-3.55-2.375-7.96-4.29-13.28-5.754-5.3-1.48-10.92-2.715-16.79-3.766-5.89-1.03-12.17-1.898-18.8-2.648-6.59-.746-13.03-1.7-19.22-2.863-6.17-1.185-12.09-2.65-17.69-4.427-5.6-1.766-10.45-4.196-14.55-7.293-4.16-3.098-7.47-7.008-9.97-11.72-2.5-4.714-3.78-10.604-3.78-17.683 0-6.195 1.28-11.425 3.78-15.687 2.5-4.285 5.76-7.738 9.73-10.39 3.96-2.66 8.6-4.575 13.93-5.76 5.29-1.178 10.86-1.76 16.78-1.76 12.36 0 22.98 1.7 31.84 5.09 8.82 3.382 16.04 7.66 21.67 12.82 5.56 5.148 9.72 10.758 12.35 16.8 2.67 6.028 4 11.712 4 17.012v38.028zm61-117.61c-3.26-1.468-7.09-2.715-11.49-3.746-4.42-1.05-9.58-1.562-15.48-1.562-9.72 0-17.47 2.808-23.19 8.41-5.76 5.59-8.64 14.594-8.64 26.965-10.32-12.37-22.32-21.375-36.04-26.965-13.69-5.602-28.53-8.41-44.41-8.41-10.32 0-20.13 1.183-29.42 3.54-9.26 2.37-17.32 6.116-24.09 11.276-6.79 5.16-12.14 11.77-16.13 19.895-3.97 8.105-5.95 17.898-5.95 29.402 0 12.97 2.2 23.578 6.6 31.836 4.42 8.243 10.24 14.884 17.46 19.892 7.23 5 15.48 8.898 24.77 11.71 9.29 2.793 18.8 5.08 28.53 6.856 10.28 2.05 20.11 3.605 29.38 4.648 9.28 1.016 17.38 2.493 24.31 4.407 6.95 1.914 12.46 4.714 16.6 8.41 4.09 3.68 6.19 9.058 6.19 16.133 0 8.242-1.47 14.882-4.43 19.882-2.96 5.008-6.85 8.852-11.71 11.5-4.85 2.65-10.31 4.418-16.37 5.313-6.03.884-12.01 1.33-17.9 1.33-15.92 0-29.17-3.028-39.76-9.07-10.65-6.044-16.41-17.45-17.26-34.263h-37.58c.59 14.152 3.52 26.086 8.82 35.805 5.33 9.726 12.39 17.61 21.24 23.648 8.86 6.06 19.02 10.406 30.48 13.05 11.51 2.657 23.6 3.977 36.29 3.977 10.29 0 20.52-.734 30.72-2.207 10.16-1.468 19.36-4.496 27.65-9.058 8.23-4.578 14.82-10.992 19.87-19.235 5-8.26 7.53-19.01 7.53-32.265v-117.61c0-8.843.48-15.332 1.54-19.464 1.02-4.125 4.49-6.176 10.38-6.176 3.51 0 7.34.734 11.49 2.21v-30.066" fill="#5b5c5e"/><path d="M2002.1 526.06c-2.79 10.175-7.06 19.222-12.79 27.175-5.77 7.96-13.14 14.313-22.11 19.016-9.02 4.728-19.55 7.087-31.62 7.087-12.67 0-23.43-2.512-32.29-7.527-8.83-5.004-16.06-11.567-21.65-19.657-5.59-8.125-9.66-17.328-12.17-27.636-2.5-10.332-3.75-20.782-3.75-31.403 0-11.19 1.34-22.023 4-32.484 2.63-10.47 6.85-19.664 12.6-27.617 5.73-7.965 13.17-14.387 22.29-19.25 9.16-4.856 20.21-7.29 33.17-7.29 12.66 0 23.42 2.497 32.3 7.52 8.82 5.016 15.92 11.625 21.21 19.883s9.12 17.7 11.46 28.305c2.36 10.606 3.56 21.513 3.56 32.696 0 10.625-1.41 21.016-4.21 31.184zm-172.63 81.117h37.59v-30.934h.87c6.19 12.657 15.92 21.867 29.16 27.625 13.29 5.742 27.88 8.617 43.79 8.617 17.68 0 33.08-3.242 46.19-9.722 13.1-6.488 24.02-15.262 32.74-26.305 8.7-11.055 15.26-23.8 19.67-38.238 4.42-14.457 6.62-29.774 6.62-45.988 0-16.21-2.14-31.536-6.41-45.97-4.29-14.445-10.75-27.038-19.45-37.792-8.69-10.77-19.61-19.317-32.72-25.637-13.1-6.344-28.36-9.523-45.74-9.523-5.9 0-12.22.61-19.02 1.777-6.82 1.168-13.55 3.18-20.34 5.965-6.8 2.797-13.2 6.476-19.24 11.05-6.05 4.567-11.12 10.243-15.25 17.036h-.87v-118.06h-37.59v316.1" fill="#5b5c5e"/><path d="M2123.2 455.77c3.69-10.758 8.78-19.758 15.27-26.973 6.46-7.227 14.07-12.746 22.76-16.566 8.69-3.843 17.89-5.757 27.62-5.757 9.75 0 18.96 1.914 27.65 5.758 8.69 3.82 16.29 9.34 22.76 16.567 6.46 7.215 11.57 16.215 15.26 26.973 3.68 10.757 5.52 23.062 5.52 36.914 0 13.847-1.84 26.152-5.52 36.906-3.69 10.762-8.8 19.812-15.26 27.19-6.47 7.372-14.07 12.97-22.76 16.814-8.69 3.816-17.9 5.742-27.65 5.742-9.73 0-18.93-1.926-27.62-5.742-8.69-3.844-16.3-9.442-22.76-16.813-6.49-7.378-11.58-16.428-15.27-27.19-3.66-10.754-5.51-23.06-5.51-36.906 0-13.852 1.85-26.157 5.51-36.914zm-38.22 83.98c4.7 14.606 11.77 27.285 21.22 38.027 9.45 10.766 21.03 19.243 34.71 25.434 13.69 6.185 29.69 9.274 47.94 9.274 18.01 0 33.92-3.09 47.75-9.273 13.85-6.19 25.5-14.667 34.95-25.433 9.4-10.742 16.49-23.42 21.21-38.027 4.73-14.57 7.06-30.27 7.06-47.066 0-16.8-2.33-32.418-7.06-46.87-4.72-14.43-11.81-27.037-21.21-37.794-9.45-10.77-21.1-19.227-34.95-25.422-13.83-6.192-29.74-9.29-47.75-9.29-18.25 0-34.25 3.098-47.94 9.29-13.68 6.195-25.26 14.652-34.71 25.422-9.45 10.757-16.52 23.363-21.22 37.793-4.72 14.453-7.08 30.07-7.08 46.87 0 16.798 2.36 32.497 7.08 47.067" fill="#5b5c5e"/><path d="M2342.7 607.17h35.39v-48.18h.84c9.19 18.563 20.37 32.262 33.63 41.12 13.28 8.83 30.04 12.974 50.41 12.368v-39.79c-15.03 0-27.86-2.05-38.46-6.19-10.62-4.13-19.17-10.172-25.64-18.133-6.52-7.937-11.21-17.668-14.18-29.168-2.94-11.488-4.4-24.457-4.4-38.898V378.61h-37.59v228.56" fill="#5b5c5e"/><path d="M2642 514.78c-.57 8.836-2.56 17.23-5.96 25.192-3.38 7.957-7.98 14.82-13.71 20.558-5.75 5.762-12.6 10.31-20.53 13.723-7.99 3.38-16.55 5.074-25.64 5.074-9.75 0-18.53-1.695-26.32-5.074-7.83-3.414-14.53-8.06-20.13-13.938-5.59-5.906-9.99-12.754-13.26-20.574-3.25-7.792-5.16-16.124-5.75-24.96H2642zm36.25-63.668c-4.99-25.35-16.04-44.648-33.16-57.898-17.09-13.274-38.62-19.914-64.54-19.914-18.28 0-34.11 3.043-47.53 9.066-13.41 6.047-24.68 14.375-33.81 24.98-9.15 10.61-16 23.278-20.57 38.024-4.55 14.738-7.17 30.8-7.73 48.187 0 17.098 2.66 32.93 7.96 47.528 5.32 14.57 12.74 27.19 22.32 37.797 9.59 10.605 20.91 18.867 34.06 24.746 13.09 5.902 27.49 8.847 43.08 8.847 20.34 0 37.21-4.195 50.63-12.597 13.41-8.4 24.16-19.082 32.26-32.05 8.13-12.97 13.73-27.126 16.82-42.438 3.09-15.333 4.34-29.922 3.77-43.774H2510.7c-.3-10.02.89-19.527 3.53-28.516 2.65-8.988 6.96-16.95 12.85-23.878 5.86-6.922 13.39-12.45 22.51-16.582 9.13-4.125 19.91-6.176 32.27-6.176 15.64 0 28.6 3.676 38.92 11.05 10.3 7.364 17.08 18.583 20.35 33.598h37.12" fill="#5b5c5e"/><path d="M3085.9 417.96c-6.17-8.258-13.18-15.324-20.98-21.215-7.82-5.898-16.16-10.762-24.99-14.59-8.82-3.828-17.98-6.64-27.4-8.402-9.42-1.766-18.74-2.645-27.86-2.645-23.56 0-44.63 4.407-63.24 13.25-18.54 8.86-34.33 20.64-47.29 35.375-12.98 14.735-22.84 31.672-29.6 50.848-6.79 19.146-10.18 39.028-10.18 59.673 0 22.976 3.14 44.867 9.51 65.648 6.35 20.794 15.75 38.978 28.29 54.607 12.53 15.62 28.14 28.07 46.85 37.36 18.73 9.277 40.62 13.91 65.66 13.91 17.1 0 33.21-1.99 48.42-5.954 15.16-3.992 28.71-10.254 40.66-18.793 11.95-8.554 21.97-19.39 30.04-32.496 8.12-13.11 13.66-28.953 16.6-47.52h-41.99c-2.1 11.79-5.89 22.106-11.49 30.938-5.62 8.84-12.54 16.067-20.79 21.66-8.25 5.59-17.62 9.805-28.04 12.602-10.49 2.8-21.62 4.21-33.41 4.21-19.15 0-35.59-3.843-49.3-11.503-13.69-7.67-24.88-17.757-33.57-30.27-8.69-12.534-15.13-26.835-19.23-42.89-4.16-16.073-6.2-32.495-6.2-49.292 0-16.516 2.36-32.352 7.04-47.53 4.72-15.18 11.68-28.59 20.8-40.228 9.16-11.656 20.41-20.94 33.82-27.852 13.39-6.93 28.95-10.39 46.64-10.39 16.21 0 30.71 2.664 43.56 7.96 12.8 5.305 23.67 12.602 32.48 21.876 8.86 9.285 15.4 20.195 19.67 32.715 4.29 12.518 6.13 26.006 5.52 40.456h-100.8v35.375h138.39V378.61h-26.54l-11.05 39.35" fill="#ec1e27"/><path d="M3212.1 455.77c3.7-10.758 8.77-19.758 15.25-26.973 6.49-7.227 14.09-12.746 22.78-16.566 8.69-3.843 17.9-5.757 27.61-5.757 9.73 0 18.94 1.914 27.63 5.758 8.69 3.82 16.3 9.34 22.79 16.567 6.47 7.215 11.58 16.215 15.24 26.973 3.69 10.757 5.54 23.062 5.54 36.914 0 13.847-1.85 26.152-5.54 36.906-3.66 10.762-8.77 19.812-15.24 27.19-6.49 7.372-14.1 12.97-22.79 16.814-8.69 3.816-17.9 5.742-27.63 5.742-9.71 0-18.92-1.926-27.61-5.742-8.69-3.844-16.29-9.442-22.78-16.813-6.48-7.378-11.55-16.428-15.25-27.19-3.69-10.754-5.51-23.06-5.51-36.906 0-13.852 1.82-26.157 5.51-36.914zm-38.21 83.98c4.69 14.606 11.76 27.285 21.21 38.027 9.42 10.766 20.99 19.243 34.71 25.434 13.69 6.185 29.65 9.274 47.93 9.274 18.01 0 33.93-3.09 47.75-9.273 13.86-6.19 25.52-14.667 34.96-25.433 9.39-10.742 16.48-23.42 21.22-38.027 4.7-14.57 7.06-30.27 7.06-47.066 0-16.8-2.36-32.418-7.06-46.87-4.74-14.43-11.83-27.037-21.22-37.794-9.44-10.77-21.1-19.227-34.96-25.422-13.82-6.192-29.74-9.29-47.75-9.29-18.28 0-34.24 3.098-47.93 9.29-13.72 6.195-25.29 14.652-34.71 25.422-9.45 10.757-16.52 23.363-21.21 37.793-4.73 14.453-7.09 30.07-7.09 46.87 0 16.798 2.36 32.497 7.09 47.067" fill="#ec1e27"/><path d="M3527.5 378.61h-40.23l-84.87 228.56h41.98l64.11-190.53h.89l62.33 190.53h39.33l-83.54-228.56" fill="#ec1e27"/><path d="M3795.9 514.78c-.61 8.836-2.58 17.23-5.98 25.192-3.4 7.957-7.95 14.82-13.68 20.558-5.76 5.762-12.61 10.31-20.57 13.723-7.95 3.38-16.52 5.074-25.64 5.074-9.72 0-18.5-1.695-26.32-5.074-7.82-3.414-14.52-8.06-20.1-13.938-5.62-5.906-10.02-12.754-13.28-20.574-3.22-7.792-5.13-16.124-5.75-24.96h131.32zm36.26-63.668c-5.03-25.35-16.05-44.648-33.17-57.898-17.09-13.274-38.62-19.914-64.56-19.914-18.28 0-34.08 3.043-47.51 9.066-13.4 6.047-24.71 14.375-33.83 24.98-9.12 10.61-16 23.278-20.53 38.024-4.6 14.738-7.18 30.8-7.75 48.187 0 17.098 2.63 32.93 7.93 47.528 5.33 14.57 12.77 27.19 22.36 37.797 9.56 10.605 20.91 18.867 34.03 24.746 13.1 5.902 27.49 8.847 43.11 8.847 20.34 0 37.2-4.195 50.62-12.597 13.4-8.4 24.17-19.082 32.27-32.05 8.09-12.97 13.72-27.126 16.78-42.438 3.13-15.333 4.35-29.922 3.77-43.774h-171.1c-.27-10.02.89-19.527 3.56-28.516 2.63-8.988 6.92-16.95 12.82-23.878 5.87-6.922 13.42-12.45 22.54-16.582 9.13-4.125 19.88-6.176 32.27-6.176 15.62 0 28.57 3.676 38.92 11.05 10.29 7.364 17.08 18.583 20.34 33.598h37.13" fill="#ec1e27"/><path d="M3873.2 607.17h35.37v-48.18h.87c9.14 18.563 20.34 32.262 33.62 41.12 13.26 8.83 30.04 12.974 50.39 12.368v-39.79c-15.02 0-27.85-2.05-38.43-6.19-10.63-4.13-19.18-10.172-25.65-18.133-6.52-7.937-11.24-17.668-14.18-29.168-2.93-11.488-4.39-24.457-4.39-38.898V378.61h-37.6v228.56" fill="#ec1e27"/><path d="M4030.2 607.17h35.38v-36.246h.9c7.93 14.14 18.17 24.61 30.69 31.386 12.53 6.778 27.02 10.168 43.56 10.168 15.03 0 27.55-2.07 37.6-6.19 9.99-4.126 18.09-9.884 24.29-17.228 6.18-7.382 10.53-16.152 13.05-26.308 2.48-10.176 3.75-21.445 3.75-33.82v-150.32h-37.56v154.74c0 14.145-4.15 25.34-12.42 33.594-8.22 8.242-19.57 12.383-34 12.383-11.51 0-21.46-1.778-29.84-5.306-8.43-3.55-15.41-8.558-21.03-15.035-5.57-6.493-9.78-14.07-12.58-22.763-2.82-8.707-4.21-18.214-4.21-28.52v-129.1h-37.58v228.56" fill="#ec1e27"/><path d="M4276 607.17h35.36v-33.582h.9c17.08 25.914 41.69 38.89 73.85 38.89 14.12 0 26.94-2.945 38.43-8.847 11.5-5.878 19.61-15.91 24.33-30.042 7.63 12.37 17.8 21.945 30.52 28.722 12.65 6.778 26.33 10.168 41.09 10.168 11.48 0 21.86-1.246 31.17-3.742 9.3-2.52 17.25-6.426 23.85-11.722 6.66-5.305 11.82-12.168 15.49-20.563 3.69-8.386 5.53-18.49 5.53-30.28V378.61h-37.59v149.87c0 7.082-.56 13.707-1.76 19.883-1.17 6.207-3.4 11.574-6.62 16.15-3.24 4.56-7.75 8.174-13.48 10.823-5.76 2.664-13.19 3.992-22.35 3.992-18.28 0-32.78-5.305-43.55-15.918-10.72-10.602-16.12-24.758-16.12-42.437v-142.36h-37.59v149.87c0 7.364-.66 14.137-1.99 20.332-1.3 6.192-3.58 11.57-6.85 16.14-3.25 4.575-7.65 8.114-13.25 10.614-5.59 2.495-12.53 3.76-20.77 3.76-11.22 0-20.65-2.222-28.31-6.64-7.66-4.41-13.93-9.722-18.79-15.914-4.83-6.195-8.37-12.59-10.6-19.23-2.22-6.625-3.32-12.152-3.32-16.57v-142.36H4276v228.56" fill="#ec1e27"/><path d="M4811.8 514.78c-.58 8.836-2.56 17.23-5.95 25.192-3.4 7.957-7.99 14.82-13.72 20.558-5.72 5.762-12.61 10.31-20.53 13.723-7.99 3.38-16.54 5.074-25.64 5.074-9.76 0-18.52-1.695-26.32-5.074-7.82-3.414-14.53-8.06-20.13-13.938-5.59-5.906-10-12.754-13.26-20.574-3.25-7.792-5.17-16.124-5.76-24.96h131.31zm36.25-63.668c-4.99-25.35-16.05-44.648-33.14-57.898-17.1-13.274-38.61-19.914-64.55-19.914-18.29 0-34.12 3.043-47.55 9.066-13.41 6.047-24.67 14.375-33.8 24.98-9.16 10.61-16 23.278-20.53 38.024-4.59 14.738-7.18 30.8-7.78 48.187 0 17.098 2.67 32.93 7.96 47.528 5.32 14.57 12.74 27.19 22.33 37.797 9.59 10.605 20.94 18.867 34.06 24.746 13.09 5.902 27.48 8.847 43.08 8.847 20.34 0 37.21-4.195 50.63-12.597 13.41-8.4 24.17-19.082 32.26-32.05 8.13-12.97 13.73-27.126 16.82-42.438 3.09-15.333 4.35-29.922 3.77-43.774h-171.12c-.29-10.02.91-19.527 3.53-28.516 2.67-8.988 6.97-16.95 12.86-23.878 5.86-6.922 13.41-12.45 22.53-16.582 9.13-4.125 19.9-6.176 32.27-6.176 15.62 0 28.58 3.676 38.91 11.05 10.31 7.364 17.11 18.583 20.33 33.598h37.13" fill="#ec1e27"/><path d="M4890.5 607.17h35.39v-36.246h.9c7.92 14.14 18.17 24.61 30.69 31.386 12.52 6.778 27.02 10.168 43.57 10.168 15.02 0 27.53-2.07 37.58-6.19 10-4.126 18.1-9.884 24.28-17.228 6.2-7.382 10.55-16.152 13.08-26.308 2.47-10.176 3.75-21.445 3.75-33.82v-150.32h-37.57v154.74c0 14.145-4.16 25.34-12.41 33.594-8.25 8.242-19.59 12.383-34.04 12.383-11.48 0-21.43-1.778-29.81-5.306-8.43-3.55-15.41-8.558-21.03-15.035-5.6-6.493-9.78-14.07-12.58-22.763-2.83-8.707-4.2-18.214-4.2-28.52v-129.1h-37.6v228.56" fill="#ec1e27"/><path d="M5188.4 607.17h45.55v-33.145h-45.55v-141.92c0-4.414.35-7.96 1.11-10.605.71-2.65 2.12-4.727 4.2-6.195 2.05-1.477 4.9-2.434 8.6-2.88 3.69-.437 8.5-.652 14.39-.652h17.25V378.61h-28.77c-9.71 0-18.02.663-24.98 1.98-6.9 1.336-12.53 3.765-16.76 7.312-4.29 3.528-7.46 8.54-9.53 15.032-2.05 6.476-3.1 15.023-3.1 25.624v145.46h-38.9v33.145h38.9v68.53h37.59v-68.53" fill="#ec1e27"/><path d="M783.07 63.867h28.902v217.15H783.07V63.867z" fill="#5b5c5e"/><path d="M856.35 221.08h24.308v-24.902h.617c5.46 9.718 12.496 16.925 21.133 21.582 8.613 4.648 18.61 6.996 29.957 6.996 10.363 0 18.965-1.418 25.836-4.27 6.896-2.843 12.466-6.777 16.755-11.867 4.238-5.048 7.227-11.095 8.97-18.087 1.71-6.988 2.577-14.734 2.577-23.25V63.863h-25.856v106.44c0 9.747-2.855 17.43-8.523 23.114-5.66 5.664-13.457 8.515-23.395 8.515-7.93 0-14.77-1.218-20.562-3.64-5.758-2.442-10.566-5.87-14.445-10.363-3.827-4.443-6.742-9.67-8.66-15.634-1.91-5.996-2.878-12.547-2.878-19.63V63.86H856.35v157.21" fill="#5b5c5e"/><path d="M1061.3 221.08h31.32V198.3h-31.32V100.68c0-3.047.22-5.5.74-7.317.51-1.816 1.49-3.25 2.91-4.246 1.41-1.036 3.39-1.673 5.94-1.985 2.5-.3 5.81-.45 9.86-.45h11.87v-22.82h-19.77c-6.68 0-12.42.458-17.19 1.368-4.76.926-8.64 2.586-11.55 5.027-2.93 2.422-5.11 5.89-6.58 10.324-1.37 4.48-2.06 10.34-2.06 17.656V198.3h-26.8v22.78h26.8v47.173h25.83V221.08" fill="#5b5c5e"/><path d="M1230.4 157.53c-.4 6.094-1.78 11.875-4.12 17.356-2.36 5.457-5.49 10.176-9.42 14.13-3.97 3.956-8.69 7.1-14.16 9.425-5.48 2.344-11.35 3.504-17.65 3.504-6.65 0-12.71-1.16-18.09-3.503-5.35-2.324-9.99-5.515-13.83-9.57-3.85-4.062-6.91-8.77-9.09-14.152-2.26-5.36-3.59-11.094-3.99-17.188h90.35zm24.91-43.777c-3.42-17.434-11.05-30.723-22.79-39.856-11.78-9.12-26.58-13.672-44.41-13.672-12.59 0-23.45 2.074-32.7 6.223-9.23 4.168-16.99 9.894-23.27 17.188-6.24 7.293-11 16.035-14.12 26.164-3.15 10.133-4.95 21.168-5.33 33.14 0 11.758 1.82 22.668 5.46 32.688 3.67 10.06 8.77 18.71 15.35 26.008 6.6 7.3 14.39 12.984 23.41 17.047 9.01 4.035 18.93 6.078 29.69 6.078 13.98 0 25.58-2.894 34.82-8.683 9.2-5.762 16.6-13.105 22.22-22.03 5.54-8.94 9.42-18.66 11.54-29.2 2.12-10.56 2.95-20.567 2.56-30.098h-117.69c-.2-6.907.61-13.458 2.43-19.642 1.83-6.16 4.79-11.667 8.84-16.433 4.04-4.74 9.2-8.555 15.48-11.375 6.3-2.856 13.68-4.27 22.22-4.27 10.75 0 19.69 2.527 26.75 7.598 7.12 5.066 11.76 12.78 13.99 23.125h25.55" fill="#5b5c5e"/><path d="M1369.6 90.195c5.98 3.523 10.77 8.19 14.45 13.985 3.64 5.77 6.33 12.293 8.06 19.597 1.72 7.325 2.56 14.602 2.56 21.907 0 6.863-.8 13.68-2.42 20.363-1.6 6.707-4.21 12.73-7.74 18.113-3.56 5.383-8.17 9.68-13.85 12.9-5.68 3.252-12.55 4.88-20.67 4.88-8.34 0-15.4-1.57-21.3-4.706-5.89-3.144-10.7-7.363-14.45-12.617-3.78-5.293-6.49-11.363-8.2-18.262-1.74-6.882-2.61-14.09-2.61-21.597 0-7.082.7-14.184 2.15-21.293 1.44-7.078 3.86-13.516 7.28-19.285 3.45-5.793 8.01-10.46 13.69-13.985 5.7-3.562 12.76-5.344 21.28-5.344 8.54 0 15.79 1.783 21.77 5.345zm50.65-12.938c0-25.746-5.95-45.05-17.79-57.94C1390.66 6.444 1372.16 0 1347.26 0c-7.3 0-14.75.82-22.38 2.43-7.54 1.632-14.47 4.28-20.64 7.91-6.2 3.644-11.29 8.41-15.35 14.297-4.07 5.89-6.3 13.086-6.71 21.582h25.83c.22-4.65 1.69-8.603 4.46-11.857 2.71-3.21 6.06-5.856 9.99-7.91 4-2.02 8.26-3.485 12.97-4.414 4.66-.908 9.12-1.35 13.35-1.35 8.54 0 15.71 1.458 21.6 4.415 5.89 2.94 10.75 6.992 14.58 12.168 3.86 5.168 6.66 11.387 8.4 18.684 1.68 7.312 2.57 15.398 2.57 24.344v10.325h-.62c-2.23-4.856-5.08-9.055-8.5-12.598-3.45-3.563-7.37-6.504-11.73-8.828-4.35-2.337-9.02-4.103-13.99-5.333-4.98-1.223-9.89-1.836-14.75-1.836-11.73 0-21.98 2.15-30.69 6.395-8.71 4.258-16.03 10.04-21.92 17.344-5.9 7.304-10.27 15.76-13.23 25.39-2.93 9.632-4.4 19.804-4.4 30.577 0 9.317 1.23 18.836 3.67 28.574 2.41 9.748 6.46 18.654 12.14 26.748 5.67 8.136 13.15 14.765 22.52 19.933 9.31 5.177 20.74 7.767 34.35 7.767 9.92 0 19.02-2.18 27.22-6.535 8.2-4.375 14.67-10.926 19.31-19.62h.62v22.48h24.34V77.26" fill="#5b5c5e"/><path d="M1458.2 221.08h24.33v-33.144h.63c6.25 12.785 13.99 22.226 23.11 28.3 9.1 6.086 20.67 8.918 34.67 8.52V197.39c-10.36 0-19.16-1.427-26.46-4.28-7.3-2.83-13.21-6.99-17.65-12.44-4.46-5.496-7.72-12.176-9.73-20.098-2.04-7.898-3.04-16.836-3.04-26.746v-69.96h-25.86v157.21" fill="#5b5c5e"/><path d="M1567.7 221.08h25.86V63.87h-25.86v157.21zm25.86 28.3h-25.86v31.634h25.86V249.38" fill="#5b5c5e"/><path d="M1669.6 221.08h31.29V198.3h-31.29V100.68c0-3.047.24-5.5.76-7.317.49-1.816 1.47-3.25 2.88-4.246 1.41-1.036 3.42-1.673 5.93-1.985 2.55-.3 5.83-.45 9.88-.45h11.84v-22.82h-19.72c-6.7 0-12.44.458-17.19 1.368-4.78.926-8.64 2.586-11.57 5.027-2.9 2.422-5.11 5.89-6.54 10.324-1.39 4.48-2.13 10.34-2.13 17.656V198.3h-26.79v22.78h26.79v47.173h25.86V221.08" fill="#5b5c5e"/><path d="M1791.2 42.91c-3.04-7.727-6-14.21-8.97-19.484-2.93-5.28-6.11-9.586-9.58-12.938-3.42-3.332-7.39-5.774-11.85-7.285-4.45-1.524-9.53-2.278-15.21-2.278-3.07 0-6.05.196-9.12.618-3.07.398-6 1.093-8.82 2.097v23.73c2.43-.808 4.88-1.61 7.43-2.43 2.56-.78 5.14-1.21 7.77-1.21 5.3 0 9.5 1.21 12.77 3.64 3.25 2.442 6.11 5.99 8.53 10.637l10.64 26.766-62.36 156.31h29.17l45.96-128.6h.6l44.11 128.6h27.37l-68.44-178.17" fill="#5b5c5e"/><path d="M2434.1 217.45c-1.64 15.617-7.28 26.906-16.9 33.918-9.61 6.992-21.94 10.496-36.97 10.496-6.05 0-12.03-.605-17.95-1.816-5.87-1.238-11.07-3.27-15.64-6.094-4.57-2.84-8.21-6.648-10.92-11.414-2.77-4.777-4.13-10.684-4.13-17.78 0-6.693 1.98-12.122 5.91-16.275 3.97-4.168 9.25-7.578 15.84-10.183 6.58-2.65 14.05-4.836 22.33-6.543 8.31-1.732 16.81-3.607 25.55-5.638 8.73-2.02 17.22-4.394 25.54-7.148 8.34-2.735 15.73-6.434 22.21-11.09 6.52-4.66 11.72-10.598 15.68-17.785 3.93-7.216 5.92-16.087 5.92-26.634 0-11.543-2.58-21.434-7.74-29.637-5.18-8.204-11.82-14.91-19.94-20.07-8.09-5.173-17.17-8.985-27.22-11.407-10.05-2.44-20.04-3.652-29.95-3.652-12.17 0-23.66 1.524-34.51 4.57-10.88 3.028-20.38 7.696-28.62 13.99-8.19 6.288-14.69 14.226-19.45 23.862-4.77 9.64-7.13 21.035-7.13 34.22h27.38c0-9.11 1.74-16.993 5.32-23.564 3.54-6.593 8.2-12.02 13.99-16.28 5.78-4.247 12.47-7.41 20.06-9.403 7.59-2.043 15.54-3.067 23.85-3.067 6.53 0 13.04.606 19.64 1.824 6.58 1.243 12.52 3.3 17.8 6.235 5.27 2.957 9.53 6.95 12.76 12.02 3.23 5.058 4.86 11.562 4.86 19.46 0 7.5-1.95 13.586-5.92 18.262-3.96 4.648-9.15 8.43-15.67 11.386-6.49 2.94-13.88 5.383-22.22 7.305-8.28 1.926-16.81 3.8-25.53 5.626-8.72 1.82-17.22 4.003-25.53 6.543-8.31 2.522-15.76 5.916-22.36 10.186-6.59 4.246-11.84 9.63-15.83 16.113-3.94 6.484-5.9 14.695-5.9 24.64 0 10.965 2.21 20.437 6.65 28.433 4.46 8 10.41 14.583 17.8 19.766 7.39 5.167 15.84 9.015 25.26 11.554 9.4 2.547 19.09 3.797 29.04 3.797 11.16 0 21.47-1.316 31.01-3.945 9.57-2.636 17.88-6.796 24.97-12.46 7.06-5.692 12.76-12.84 16.99-21.446 4.29-8.622 6.61-18.907 7.02-30.88h-27.35" fill="#5b5c5e"/><path d="M2610.5 157.53c-.41 6.094-1.79 11.875-4.11 17.356-2.36 5.457-5.48 10.176-9.45 14.13-3.96 3.956-8.66 7.1-14.12 9.425-5.48 2.344-11.35 3.504-17.66 3.504-6.68 0-12.7-1.16-18.09-3.503-5.37-2.324-9.99-5.515-13.82-9.57-3.86-4.062-6.92-8.77-9.12-14.152-2.26-5.36-3.59-11.094-3.97-17.188h90.34zm24.9-43.777c-3.39-17.434-11.03-30.723-22.75-39.856-11.8-9.12-26.6-13.672-44.42-13.672-12.6 0-23.46 2.074-32.73 6.223-9.21 4.168-16.97 9.894-23.25 17.188-6.26 7.293-11 16.035-14.12 26.164-3.17 10.133-4.94 21.168-5.32 33.14 0 11.758 1.79 22.668 5.46 32.688 3.63 10.06 8.74 18.71 15.34 26.008 6.6 7.3 14.4 12.984 23.42 17.047 9.02 4.035 18.93 6.078 29.65 6.078 13.99 0 25.61-2.894 34.83-8.683 9.23-5.762 16.62-13.105 22.21-22.03 5.57-8.94 9.43-18.66 11.55-29.2 2.14-10.56 2.95-20.567 2.58-30.098h-117.69c-.19-6.907.63-13.458 2.42-19.642 1.85-6.16 4.77-11.667 8.83-16.433 4.04-4.74 9.23-8.555 15.51-11.375 6.26-2.856 13.69-4.27 22.22-4.27 10.75 0 19.63 2.527 26.74 7.598 7.09 5.066 11.77 12.78 14 23.125h25.52" fill="#5b5c5e"/><path d="M2663.8 221.08h24.29v-33.144h.64c6.28 12.785 14 22.226 23.13 28.3 9.1 6.086 20.65 8.918 34.65 8.52V197.39c-10.36 0-19.18-1.427-26.46-4.28-7.3-2.83-13.17-6.99-17.63-12.44-4.51-5.496-7.74-12.176-9.74-20.098-2.03-7.898-3.02-16.836-3.02-26.746v-69.96h-25.86v157.21" fill="#5b5c5e"/><path d="M2836.8 63.867h-27.68l-58.37 157.21h28.9l44.08-131.06h.64l42.88 131.06h27.02l-57.47-157.21" fill="#5b5c5e"/><path d="M2919.5 221.08h25.85V63.87h-25.85v157.21zm25.85 28.3h-25.85v31.634h25.85V249.38" fill="#5b5c5e"/><path d="M3092.2 170.61c-2.04 9.922-6.36 17.65-12.93 23.098-6.58 5.496-15.27 8.23-25.99 8.23-9.37 0-17.18-1.726-23.45-5.156-6.27-3.465-11.3-8.027-15.05-13.71-3.75-5.665-6.42-12.196-8.06-19.61-1.59-7.39-2.41-15.047-2.41-22.97 0-7.272.85-14.4 2.54-21.268 1.74-6.89 4.44-13.047 8.1-18.4 3.64-5.366 8.37-9.686 14.13-12.917 5.75-3.262 12.81-4.883 21.12-4.883 12.61 0 22.52 3.406 29.83 10.195 7.27 6.784 11.74 16.15 13.39 28.13h26.46c-2.86-19.264-10.14-34.264-21.89-45.014-11.78-10.754-27.6-16.117-47.49-16.117-11.98 0-22.54 1.983-31.74 5.937-9.25 3.945-16.95 9.464-23.13 16.574-6.18 7.07-10.86 15.548-13.98 25.38-3.16 9.848-4.72 20.625-4.72 32.383 0 11.77 1.53 22.774 4.53 33.012 3.07 10.242 7.69 19.176 13.88 26.765 6.14 7.598 13.85 13.575 23.09 17.95 9.23 4.355 20.09 6.535 32.7 6.535 8.91 0 17.27-1.067 25.09-3.207 7.8-2.13 14.76-5.41 20.84-9.863 6.05-4.48 11-10.106 14.73-16.89 3.77-6.802 6.16-14.868 7.16-24.185h-26.75" fill="#5b5c5e"/><path d="M3258 157.53c-.37 6.094-1.73 11.875-4.1 17.356-2.34 5.457-5.46 10.176-9.46 14.13-3.9 3.956-8.66 7.1-14.09 9.425-5.49 2.344-11.37 3.504-17.68 3.504-6.65 0-12.71-1.16-18.09-3.503-5.35-2.324-9.96-5.515-13.8-9.57-3.88-4.062-6.91-8.77-9.12-14.152-2.26-5.36-3.56-11.094-3.97-17.188H3258zm24.96-43.777c-3.45-17.434-11.06-30.723-22.81-39.856-11.77-9.12-26.57-13.672-44.41-13.672-12.59 0-23.46 2.074-32.7 6.223-9.24 4.168-16.98 9.894-23.27 17.188-6.28 7.293-10.98 16.035-14.13 26.164-3.16 10.133-4.95 21.168-5.33 33.14 0 11.758 1.82 22.668 5.46 32.688 3.63 10.06 8.8 18.71 15.37 26.008 6.6 7.3 14.4 12.984 23.42 17.047 9.01 4.035 18.93 6.078 29.69 6.078 13.98 0 25.56-2.894 34.76-8.683 9.26-5.762 16.65-13.105 22.25-22.03 5.54-8.94 9.39-18.66 11.53-29.2 2.16-10.56 2.99-20.567 2.59-30.098h-117.69c-.21-6.907.6-13.458 2.43-19.642 1.81-6.16 4.77-11.667 8.82-16.433 4.05-4.74 9.22-8.555 15.5-11.375 6.3-2.856 13.7-4.27 22.22-4.27 10.76 0 19.65 2.527 26.76 7.598 7.08 5.066 11.74 12.78 13.98 23.125h25.56" fill="#5b5c5e"/><path d="M3654.6 281.02h149.89v-24.328h-121.02v-69.02h112.83v-24.348h-112.83v-75.13h121.95V63.872H3654.6v217.15" fill="#5b5c5e"/><path d="M3878.4 146.59l-54.77 74.492h33.18l37.69-55.035 39.25 55.035h31.02l-54.14-72.37 60.8-84.845h-33.12l-43.81 65.086-43.76-65.086h-31.36l59.02 82.723" fill="#5b5c5e"/><path d="M4094.7 170.61c-2.08 9.922-6.36 17.65-12.97 23.098-6.57 5.496-15.23 8.23-25.96 8.23-9.36 0-17.17-1.726-23.44-5.156-6.27-3.465-11.29-8.027-15.04-13.71-3.77-5.665-6.47-12.196-8.08-19.61-1.63-7.39-2.43-15.047-2.43-22.97 0-7.272.83-14.4 2.58-21.268 1.72-6.89 4.42-13.047 8.08-18.4 3.64-5.366 8.31-9.686 14.09-12.917 5.8-3.262 12.86-4.883 21.18-4.883 12.56 0 22.51 3.406 29.81 10.195 7.28 6.784 11.73 16.15 13.37 28.13h26.47c-2.85-19.264-10.15-34.264-21.91-45.014-11.79-10.754-27.57-16.117-47.45-16.117-11.97 0-22.54 1.983-31.81 5.937-9.18 3.945-16.9 9.464-23.08 16.574-6.18 7.07-10.87 15.548-13.99 25.38-3.15 9.848-4.7 20.625-4.7 32.383 0 11.77 1.49 22.774 4.54 33.012 3.06 10.242 7.66 19.176 13.84 26.765 6.18 7.598 13.88 13.575 23.13 17.95 9.23 4.355 20.1 6.535 32.68 6.535 8.92 0 17.28-1.067 25.08-3.207 7.82-2.13 14.78-5.41 20.83-9.863 6.1-4.48 11-10.106 14.75-16.89 3.75-6.802 6.15-14.868 7.18-24.185h-26.75" fill="#5b5c5e"/><path d="M4260.4 157.53c-.41 6.094-1.8 11.875-4.1 17.356-2.33 5.457-5.5 10.176-9.45 14.13-3.94 3.956-8.68 7.1-14.13 9.425-5.45 2.344-11.35 3.504-17.65 3.504-6.66 0-12.72-1.16-18.09-3.503-5.39-2.324-9.97-5.515-13.84-9.57-3.84-4.062-6.89-8.77-9.12-14.152-2.22-5.36-3.56-11.094-3.95-17.188h90.33zm24.93-43.777c-3.42-17.434-11.05-30.723-22.79-39.856-11.76-9.12-26.59-13.672-44.4-13.672-12.6 0-23.48 2.074-32.73 6.223-9.21 4.168-16.95 9.894-23.25 17.188-6.28 7.293-10.98 16.035-14.13 26.164-3.15 10.133-4.94 21.168-5.31 33.14 0 11.758 1.81 22.668 5.45 32.688 3.64 10.06 8.77 18.71 15.37 26.008 6.57 7.3 14.4 12.984 23.41 17.047 9.03 4.035 18.94 6.078 29.66 6.078 13.99 0 25.6-2.894 34.8-8.683 9.25-5.762 16.65-13.105 22.21-22.03 5.58-8.94 9.43-18.66 11.58-29.2 2.13-10.56 2.95-20.567 2.57-30.098h-117.7c-.21-6.907.61-13.458 2.43-19.642 1.83-6.16 4.76-11.667 8.81-16.433 4.06-4.74 9.25-8.555 15.54-11.375 6.24-2.856 13.65-4.27 22.21-4.27 10.75 0 19.63 2.527 26.75 7.598 7.07 5.066 11.74 12.78 13.99 23.125h25.53" fill="#5b5c5e"/><path d="M4316 63.867h25.86v217.15H4316V63.867z" fill="#5b5c5e"/><path d="M4383.5 63.867h25.883v217.15H4383.5V63.867z" fill="#5b5c5e"/><path d="M4558.7 157.53c-.41 6.094-1.79 11.875-4.12 17.356-2.34 5.457-5.49 10.176-9.43 14.13-3.93 3.956-8.7 7.1-14.14 9.425-5.47 2.344-11.36 3.504-17.66 3.504-6.63 0-12.73-1.16-18.1-3.503-5.34-2.324-9.97-5.515-13.8-9.57-3.87-4.062-6.92-8.77-9.13-14.152-2.21-5.36-3.54-11.094-3.95-17.188h90.33zm24.94-43.777c-3.45-17.434-11.08-30.723-22.82-39.856-11.76-9.12-26.56-13.672-44.4-13.672-12.58 0-23.47 2.074-32.71 6.223-9.24 4.168-16.97 9.894-23.27 17.188-6.25 7.293-10.98 16.035-14.12 26.164-3.16 10.133-4.94 21.168-5.33 33.14 0 11.758 1.82 22.668 5.45 32.688 3.67 10.06 8.81 18.71 15.39 26.008 6.59 7.3 14.39 12.984 23.4 17.047 9.03 4.035 18.93 6.078 29.69 6.078 13.97 0 25.56-2.894 34.8-8.683 9.21-5.762 16.62-13.105 22.2-22.03 5.58-8.94 9.44-18.66 11.56-29.2 2.14-10.56 2.98-20.567 2.57-30.098h-117.68c-.23-6.907.59-13.458 2.41-19.642 1.82-6.16 4.79-11.667 8.83-16.433 4.08-4.74 9.24-8.555 15.51-11.375 6.28-2.856 13.66-4.27 22.22-4.27 10.74 0 19.66 2.527 26.75 7.598 7.09 5.066 11.73 12.78 13.99 23.125h25.56" fill="#5b5c5e"/><path d="M4612.9 221.08h24.31v-24.902h.62c5.45 9.718 12.51 16.925 21.13 21.582 8.61 4.648 18.58 6.996 29.96 6.996 10.36 0 18.96-1.418 25.83-4.27 6.92-2.843 12.5-6.777 16.74-11.867 4.28-5.048 7.25-11.095 8.98-18.087 1.71-6.988 2.58-14.734 2.58-23.25V63.863h-25.85v106.44c0 9.747-2.86 17.43-8.51 23.114-5.68 5.664-13.47 8.515-23.42 8.515-7.89 0-14.76-1.218-20.52-3.64-5.79-2.442-10.62-5.87-14.45-10.363-3.86-4.443-6.73-9.67-8.67-15.634-1.93-5.996-2.9-12.547-2.9-19.63V63.86h-25.83v157.21" fill="#5b5c5e"/><path d="M4888.7 170.61c-2.06 9.922-6.33 17.65-12.92 23.098-6.58 5.496-15.23 8.23-26 8.23-9.34 0-17.14-1.726-23.44-5.156-6.27-3.465-11.29-8.027-15.04-13.71-3.75-5.665-6.47-12.196-8.07-19.61-1.63-7.39-2.43-15.047-2.43-22.97 0-7.272.89-14.4 2.59-21.268 1.72-6.89 4.41-13.047 8.08-18.4 3.63-5.366 8.35-9.686 14.11-12.917 5.79-3.262 12.83-4.883 21.13-4.883 12.61 0 22.55 3.406 29.83 10.195 7.28 6.784 11.73 16.15 13.39 28.13h26.45c-2.84-19.264-10.13-34.264-21.89-45.014-11.75-10.754-27.59-16.117-47.45-16.117-11.97 0-22.57 1.983-31.8 5.937-9.2 3.945-16.93 9.464-23.11 16.574-6.17 7.07-10.85 15.548-14 25.38-3.12 9.848-4.7 20.625-4.7 32.383 0 11.77 1.55 22.774 4.54 33.012 3.07 10.242 7.69 19.176 13.88 26.765 6.17 7.598 13.85 13.575 23.08 17.95 9.24 4.355 20.14 6.535 32.71 6.535 8.91 0 17.27-1.067 25.1-3.207 7.79-2.13 14.74-5.41 20.83-9.863 6.09-4.48 11-10.106 14.75-16.89 3.75-6.802 6.14-14.868 7.14-24.185h-26.76" fill="#5b5c5e"/><path d="M5054.4 157.53c-.41 6.094-1.76 11.875-4.1 17.356-2.33 5.457-5.46 10.176-9.45 14.13-3.91 3.956-8.66 7.1-14.1 9.425-5.48 2.344-11.38 3.504-17.65 3.504-6.68 0-12.71-1.16-18.08-3.503-5.39-2.324-10-5.515-13.84-9.57-3.88-4.062-6.93-8.77-9.15-14.152-2.23-5.36-3.54-11.094-3.94-17.188h90.31zm24.95-43.777c-3.44-17.434-11.04-30.723-22.8-39.856-11.77-9.12-26.57-13.672-44.4-13.672-12.59 0-23.48 2.074-32.71 6.223-9.23 4.168-16.97 9.894-23.28 17.188-6.27 7.293-10.96 16.035-14.1 26.164-3.17 10.133-4.94 21.168-5.31 33.14 0 11.758 1.78 22.668 5.42 32.688 3.64 10.06 8.81 18.71 15.38 26.008 6.59 7.3 14.39 12.984 23.41 17.047 9.02 4.035 18.93 6.078 29.66 6.078 13.99 0 25.62-2.894 34.79-8.683 9.27-5.762 16.66-13.105 22.22-22.03 5.6-8.94 9.43-18.66 11.57-29.2 2.15-10.56 2.99-20.567 2.58-30.098h-117.69c-.18-6.907.63-13.458 2.41-19.642 1.86-6.16 4.79-11.667 8.86-16.433 4.02-4.74 9.21-8.555 15.49-11.375 6.3-2.856 13.68-4.27 22.22-4.27 10.75 0 19.63 2.527 26.75 7.598 7.11 5.066 11.72 12.78 13.99 23.125h25.54" fill="#5b5c5e"/><path d="M2134 122.76c0-22.188-17.98-40.196-40.17-40.196s-40.17 18.008-40.17 40.196c0 22.18 17.98 40.176 40.17 40.176S2134 144.94 2134 122.76" fill="#5b5c5e"/><path d="M3578.1 122.76c0-22.188-18.01-40.196-40.17-40.196-22.22 0-40.2 18.008-40.2 40.196 0 22.18 17.98 40.176 40.2 40.176 22.16 0 40.17-17.997 40.17-40.176" fill="#5b5c5e"/></g></g></g></g></svg>