<?xml version="1.0" encoding="utf-8"?>
<!-- Generator: Adobe Illustrator 16.0.0, SVG Export Plug-In . SVG Version: 6.00 Build 0)  -->
<!DOCTYPE svg PUBLIC "-//W3C//DTD SVG 1.1//EN" "http://www.w3.org/Graphics/SVG/1.1/DTD/svg11.dtd">
<svg version="1.1" xmlns="http://www.w3.org/2000/svg" xmlns:xlink="http://www.w3.org/1999/xlink" x="0px" y="0px" width="74.23px"
	 height="88.813px" viewBox="279.215 410.224 74.23 88.813" enable-background="new 279.215 410.224 74.23 88.813"
	 xml:space="preserve">
<g id="Layer_2" display="none">
	<rect x="14.445" y="27.138" display="inline" fill="#E21752" stroke="#000000" stroke-miterlimit="10" width="763" height="526"/>
</g>
<g id="Layer_1">
	<g>
		<g>
			<polygon fill="#FFFFFF" points="349.763,478.053 327.523,478.053 327.523,419.019 349.763,410.224 			"/>
			<polygon fill="#FFFFFF" points="325.61,478.053 303.37,478.053 303.37,428.569 325.61,419.776 			"/>
			<polygon fill="#FFFFFF" points="301.456,478.053 279.216,478.053 279.216,438.12 301.456,429.325 			"/>
		</g>
		<g>
			<path fill="#FFFFFF" d="M289.206,499.037h-3.635l-1.552-9.776l-0.736,9.776h-4.068l1.368-16.197h5.619l0.913,5.454
				c0.076,0.449,0.145,0.935,0.204,1.457c0.059,0.526,0.113,1.096,0.162,1.713c0.089-1.031,0.212-1.951,0.369-2.76l1.089-5.864
				h5.461l1.087,16.197h-3.87l-0.564-9.776L289.206,499.037z"/>
			<path fill="#FFFFFF" d="M308.544,499.037h-4.521l-0.325-2.059h-2.948l-0.357,2.059h-4.521l3.891-16.197h5.35L308.544,499.037z
				 M303.183,493.571l-0.283-1.889c-0.007-0.007-0.021-0.1-0.042-0.282c-0.014-0.153-0.088-0.764-0.221-1.828
				c-0.014-0.119-0.031-0.279-0.052-0.483c-0.021-0.207-0.048-0.469-0.083-0.785l-0.137-1.529c-0.014,0.144-0.033,0.309-0.058,0.49
				c-0.025,0.183-0.051,0.383-0.079,0.6c-0.049,0.433-0.084,0.735-0.105,0.903s-0.036,0.27-0.042,0.305l-0.302,1.961l-0.442,2.538
				H303.183L303.183,493.571z"/>
			<path fill="#FFFFFF" d="M320.465,499.037h-4.731l-2.162-5.771c-0.021-0.099-0.058-0.228-0.11-0.39
				c-0.053-0.159-0.117-0.353-0.194-0.576l0.032,1.071v5.665h-4.353V482.84h4.478c1.976,0,3.448,0.388,4.43,1.165
				c1.243,0.992,1.865,2.405,1.865,4.236c0,1.959-0.836,3.314-2.507,4.06L320.465,499.037z M313.321,490.108h0.293
				c0.505,0,0.922-0.192,1.259-0.578c0.337-0.381,0.506-0.872,0.506-1.468c0-1.208-0.635-1.812-1.902-1.812h-0.157L313.321,490.108
				L313.321,490.108z"/>
			<path fill="#FFFFFF" d="M332.688,499.037h-4.72l-2.905-7.468l0.116,7.468h-4.375V482.84h4.375l-0.116,6.942l2.404-6.942h4.615
				l-3.318,7.814L332.688,499.037z"/>
			<path fill="#FFFFFF" d="M333.102,499.037V482.84h8.007v3.759h-3.807v2.252h3.306v3.818h-3.306v2.611h3.807v3.757H333.102
				L333.102,499.037z"/>
			<path fill="#FFFFFF" d="M349.762,499.037h-7.708V482.84h4.199v12.44h3.509V499.037z"/>
		</g>
		<g>
			<g>
				<path id="SVGID_1_" fill="#FFFFFF" d="M348.093,485.035c0,1.528,1.222,2.651,2.678,2.651c1.45,0,2.674-1.123,2.674-2.651
					c0-1.525-1.225-2.636-2.674-2.636C349.314,482.399,348.093,483.51,348.093,485.035 M348.633,485.035
					c0-1.255,0.934-2.196,2.138-2.196c1.198,0,2.145,0.941,2.145,2.196c0,1.265-0.947,2.201-2.145,2.201
					C349.567,487.236,348.633,486.3,348.633,485.035z M350.212,485.242h0.538l0.804,1.321h0.515l-0.87-1.338
					c0.455-0.062,0.803-0.304,0.803-0.849c0-0.597-0.368-0.866-1.093-0.866h-1.146v3.053h0.451V485.242z M350.212,484.844v-0.944
					h0.641c0.316,0,0.655,0.073,0.655,0.462c0,0.461-0.348,0.482-0.737,0.482H350.212L350.212,484.844z"/>
			</g>
		</g>
	</g>
</g>
</svg>
