<?xml version="1.0" encoding="utf-8"?>
<!-- Generator: Adobe Illustrator 18.1.1, SVG Export Plug-In . SVG Version: 6.00 Build 0)  -->
<!DOCTYPE svg PUBLIC "-//W3C//DTD SVG 1.1//EN" "http://www.w3.org/Graphics/SVG/1.1/DTD/svg11.dtd">
<svg version="1.1" id="Layer_1" xmlns="http://www.w3.org/2000/svg" xmlns:xlink="http://www.w3.org/1999/xlink" x="0px" y="0px"
	 viewBox="312 -28.7 654.2 87.7" enable-background="new 312 -28.7 654.2 87.7" xml:space="preserve">
<path fill="#EC1E27" d="M960.5-16.9h5.7v4.1h-5.7V5c0,0.6,0,1,0.1,1.3c0.1,0.3,0.3,0.6,0.5,0.8c0.3,0.2,0.6,0.3,1.1,0.4
	c0.5,0.1,1.1,0.1,1.8,0.1h2.2v4.1h-3.6c-1.2,0-2.3-0.1-3.1-0.2c-0.9-0.2-1.6-0.5-2.1-0.9c-0.5-0.4-0.9-1.1-1.2-1.9
	c-0.3-0.8-0.4-1.9-0.4-3.2v-18.2H951v-4.1h4.9v-8.6h4.7L960.5-16.9"/>
<rect x="398.8" y="-28.7" fill="#808080" width="567.4" height="40.4"/>
<rect x="312" y="-28.7" fill="#EC1E27" width="67.8" height="79.7"/>
<rect x="398.8" y="23.5" fill="#808080" width="567.4" height="27.6"/>
</svg>
